<svg id="Layer_1" data-name="Layer 1" xmlns="http://www.w3.org/2000/svg" viewBox="0 0 19.99 14.28"><defs><style>.cls-1{fill:#fff}</style></defs><path class="cls-1" d="m12.35 14.06-2.62-5.5a.11.11 0 0 0-.2 0L6.89 14a.15.15 0 0 0 0 .13.12.12 0 0 0 .1.08h1.27a.14.14 0 0 1 .12.14V17a.12.12 0 0 0 .11.14h2.26a.18.18 0 0 0 .09 0 .12.12 0 0 0 0-.1v-2.65a.17.17 0 0 1 0-.1.18.18 0 0 1 .09 0h1.27a.12.12 0 0 0 .09-.08.14.14 0 0 0 0-.11Z" transform="translate(-.01 -2.86)"/><path class="cls-1" d="M15.42 17.05h-2.69v-1.68h2.69a2.85 2.85 0 0 0 2.14-.92A2.9 2.9 0 0 0 15 9.6l-.55.08-.29-.47a2.86 2.86 0 0 0-2.29-1.38h-.54l-.19-.51A4.19 4.19 0 0 0 3 8.73v.48l-.27.25a3.29 3.29 0 0 0-1.08 2.36 3.84 3.84 0 0 0 3.39 3.56h1.07v1.67H4.86A5.54 5.54 0 0 1 0 11.83a4.79 4.79 0 0 1 1.34-3.31 5.86 5.86 0 0 1 11.15-2.3 4.63 4.63 0 0 1 2.79 1.68h.14a4.58 4.58 0 0 1 0 9.15Z" transform="translate(-.01 -2.86)"/></svg>