<?xml version="1.0" encoding="utf-8"?>
<!-- Generator: Adobe Illustrator 25.2.3, SVG Export Plug-In . SVG Version: 6.00 Build 0)  -->
<svg version="1.1" id="Layer_1" xmlns="http://www.w3.org/2000/svg" xmlns:xlink="http://www.w3.org/1999/xlink" x="0px" y="0px"
	 viewBox="0 0 512 512" style="enable-background:new 0 0 512 512;" xml:space="preserve">
<style type="text/css">
	.st0{fill:#10B981;}
	.st1{fill:#FFFFFF;}
</style>
<path class="st0" d="M431.9,512H80.1C35.9,512,0,476.1,0,431.9V80.1C0,35.9,35.9,0,80.1,0h351.8C476.1,0,512,35.9,512,80.1v351.8
	C512,476.1,476.1,512,431.9,512z"/>
<path class="st1" d="M207.7,450.6c-8.3-2.8-13.8-8.2-15.4-16.9c-0.5-2.8-0.6-5.7-0.6-8.5c-0.1-12.3,0-24.7-0.1-37
	c0-1.4-0.3-3.3-1.3-4.2c-8.2-7.6-11.9-17.5-14.3-28c-3.2-14.2-3.7-28.5-3.7-43c0.1-26.9-0.1-53.8,0.1-80.7c0-4.5,0.9-9.1,2.3-13.3
	c1.9-5.6,6.3-8.7,12.2-9.5c3.9-0.5,7.7-0.9,12-1.5c-3.3-9.5-6.6-18.8-9.8-28c-9.6-27.3-19.3-54.6-28.8-81.9
	c-2.8-7.9-0.6-15.4,5.6-19.8c8.9-6.4,21.1-2.7,25.1,7.9c6.4,17.1,12.6,34.4,18.8,51.6c6.3,17.4,12.7,34.9,19,52.3
	c0.3,0.9,0.4,2,1,2.5c1.1,0.9,2.7,2.1,3.8,1.9c1.1-0.2,2.3-1.8,2.8-3.1c0.5-1.1,0.1-2.6,0.1-3.9c-0.6-39.3-1.2-78.5-1.8-117.8
	c-0.1-9.3,4-15.5,11.6-17.7c10-2.9,20.1,3.9,20.6,14.3c0.7,14.7,1,29.4,1.3,44c0.7,26.4,1.2,52.8,1.8,79.1c0,1.2,0,2.3,0.1,3.5
	c0.4,2.9,1.5,5.3,4.9,5.7c3.5,0.4,5.3-1.5,6.1-4.7c1.7-7.1,3.5-14.1,5.1-21.2c7.1-29.8,14.2-59.6,21.3-89.4
	c2.4-10,7.8-15.1,16.1-15.1c10,0,17.7,8.4,16,18.3c-3.1,17.9-6.5,35.8-9.8,53.6c-6.6,35.5-13.3,71-19.7,106.5
	c-1.5,8.4,0.4,16.6,4.5,24.1c2.4,4.4,4.5,5.4,9.3,3.8c6-2,12.1-4.1,17.6-7.1c10.6-5.8,20.8-12.4,31.2-18.6c7.1-4.2,15-3,20.4,2.6
	c5.2,5.5,5.9,13.8,1.6,20.1c-0.9,1.3-1.9,2.6-3.1,3.4c-20.6,12.7-33.6,32.1-46.1,52.1c-10.1,16.2-20.5,32.2-31.3,48
	c-3.3,4.8-8.3,8.4-12.4,12.7c-0.8,0.9-1.3,2.4-1.3,3.7c-0.1,11.4-0.1,22.9-0.1,34.3c0,13.5-6,21.1-19.3,24.4c-0.4,0.1-0.7,0.4-1,0.6
	C256.2,450.6,231.9,450.6,207.7,450.6z"/>
</svg>
